<?xml version="1.0" encoding="utf-8"?>
<!-- Generator: Adobe Illustrator 22.1.0, SVG Export Plug-In . SVG Version: 6.00 Build 0)  -->
<svg version="1.1" id="Ebene_1" xmlns="http://www.w3.org/2000/svg" xmlns:xlink="http://www.w3.org/1999/xlink" x="0px" y="0px"
	 viewBox="0 0 601 215" style="enable-background:new 0 0 601 215;" xml:space="preserve">
<style type="text/css">
	.st0{display:none;stroke:#FFFFFF;}
	.st1{fill:#1D71B8;}
</style>
<rect x="-124.5" y="-189.8" class="st0" width="845.4" height="594.9"/>
<g>
	<g>
		<g>
			<path class="st1" d="M430,130.5V67.2c-9.4-4.8-15.4-6.5-22.4-6.5c-17.1,0-26.5,14.2-26.5,40.7c0,28.4,6.3,40.4,20.9,40.4
				C410.7,141.8,417.9,138.9,430,130.5z M447.5,80.1l0,35.4c0,13,0,18.8,0.5,26.2l0.7,13.5c0.2,5.3,0.5,9.9,0.5,13.2
				c0,27.2-14.4,41.6-41.6,41.6c-13,0-27.7-4.1-38-10.3c-1.2-0.5-1.4-1.2-1.4-2.4v-0.7c0,0,0.2-0.2,0.5-0.7l4.1-9.4
				c0.5-1,1-1.4,1.7-1.4c0.2,0,1.2,0.2,1.7,0.7c10.3,5.3,21.9,8.7,30.6,8.7c17.8,0,25-7.2,25-25.7c0-3.6-0.2-7.5-0.2-11.8
				c-0.2-5.8-0.5-8.9-0.5-9.6v-2.4c-10.8,8.9-20.9,12.8-32.5,12.8c-22.4,0-36.3-19.7-36.3-51.7c0-39,15.9-60.6,44.3-60.6
				c8.9,0,15.4,1.7,23.6,6.6V48c0-2.2,0.5-2.6,2.6-2.6h12c1.9,0,2.9,0.5,2.9,1.7v1L447.5,80.1z"/>
			<path class="st1" d="M483.8,57.1c11.4-8.4,20.1-11.8,30.4-11.8c11.1,0,18.3,4.3,22.4,13.7c13.9-9.9,23.3-13.7,34.2-13.7
				c17.8,0,25.3,9.6,25.3,33v79.9c0,2.2-0.5,2.6-2.6,2.6h-12c-2.4,0-2.9-0.5-2.9-2.6V77.5c0-11.8-4.6-17.1-14.9-17.1
				c-7.5,0-13.2,2.2-23.8,9.4v88.3v1c0,1.2-0.7,1.7-2.6,1.7h-12c-2.2,0-2.6-0.5-2.6-2.6V77.8c0-11.5-5-17.3-15.1-17.3
				c-7.5,0-13.9,2.6-23.3,9.9v87.8c0,2.2-0.5,2.6-2.6,2.6h-12c-1.9,0-2.9-0.5-2.9-1.7v-1v-84l-0.1-26.4c0-2.2,0.5-2.6,2.6-2.6h12
				c1.9,0,2.9,0.5,2.9,1.7v1L483.8,57.1z"/>
			<path class="st1" d="M234.6,57.3c11.4-8.4,20.1-11.8,30.4-11.8c11.1,0,18.3,4.3,22.4,13.7c13.9-9.9,23.3-13.7,34.2-13.7
				c17.8,0,25.3,9.6,25.3,33v79.9c0,2.2-0.5,2.6-2.6,2.6h-12c-2.4,0-2.9-0.5-2.9-2.6V77.7c0-11.8-4.6-17.1-14.9-17.1
				c-7.5,0-13.2,2.2-23.8,9.4v88.3v1c0,1.2-0.7,1.7-2.6,1.7h-12c-2.2,0-2.6-0.5-2.6-2.6V78c0-11.5-5.1-17.3-15.2-17.3
				c-7.5,0-14,2.6-23.3,9.9v87.8c0,2.2-0.5,2.6-2.6,2.6h-12c-1.9,0-2.9-0.5-2.9-1.7v-1v-84L217.1,48c0-2.2,0.5-2.6,2.6-2.6h12
				c1.9,0,2.9,0.5,2.9,1.7v1L234.6,57.3z"/>
		</g>
	</g>
	<path class="st1" d="M112,138.1c0-1.3-0.7-2-2-2c-60.5,0-63.1,0-70.8,0c-7.7,0-10.7-5-10.7-11.1c0-6.1,0-77.5,0-77.5
		c0-1.3-0.7-2-2-2L6,45.4c-1.3,0-2,0.7-2,2c0,60.5,0,67.3,0,72.9l0,0v12.7c0,18.1,8.2,27.4,27.5,27.4c2.6,0,78.4,0,78.4,0
		c1.3,0,2-0.7,2-2L112,138.1z"/>
	<path class="st1" d="M46.3,27.6c0,1.3,0.7,2,2,2c60.5,0,63.1,0,70.8,0c7.7,0,10.7,5,10.7,11.1c0,6.1,0,77.5,0,77.5c0,1.3,0.7,2,2,2
		l20.4,0c1.3,0,2-0.7,2-2c0-60.5,0-67.3,0-72.9l0,0V32.6c0-18.1-8.2-27.4-27.5-27.4c-2.6,0-78.4,0-78.4,0c-1.3,0-2,0.7-2,2
		L46.3,27.6z"/>
</g>
</svg>
