<?xml version="1.0" standalone="no"?>
<!DOCTYPE svg PUBLIC "-//W3C//DTD SVG 20010904//EN"
 "http://www.w3.org/TR/2001/REC-SVG-20010904/DTD/svg10.dtd">
<svg version="1.0" xmlns="http://www.w3.org/2000/svg"
 width="260.000000pt" height="260.000000pt" viewBox="0 0 260.000000 260.000000"
 preserveAspectRatio="xMidYMid meet">
<metadata>
Created by potrace 1.11, written by Peter Selinger 2001-2013
</metadata>
<g transform="translate(0.000000,260.000000) scale(0.100000,-0.100000)"
fill="#000000" stroke="none">
<path d="M729 2482 c-98 -63 -168 -227 -185 -438 l-7 -84 26 0 c23 0 26 5 37
68 16 91 39 140 88 184 79 71 166 71 234 1 67 -70 117 -200 164 -423 l27 -128
-25 -63 -26 -64 -63 -6 -64 -6 58 -1 c31 -1 57 -6 57 -11 0 -4 -13 -41 -30
-81 -16 -40 -30 -74 -30 -76 0 -2 66 -4 146 -4 l147 0 -7 48 c-4 26 -10 64
-13 84 l-6 37 89 4 89 3 -92 2 c-51 1 -93 6 -93 10 0 5 -20 106 -44 225 -104
504 -158 644 -274 718 -64 40 -140 41 -203 1z"/>
<path d="M387 1523 c-3 -5 25 -7 61 -5 116 5 130 9 35 10 -50 1 -94 -1 -96 -5z"/>
<path d="M601 1526 c8 -8 78 -10 85 -3 4 4 -14 7 -41 7 -27 0 -46 -2 -44 -4z"/>
<path d="M1528 1523 c29 -2 74 -2 100 0 26 2 2 3 -53 3 -55 0 -76 -1 -47 -3z"/>
<path d="M2113 1523 c224 -2 407 -6 407 -10 0 -3 -26 -34 -57 -67 -32 -34
-103 -110 -158 -168 l-100 -108 -5 -62 -5 -63 -922 -3 -922 -2 -3 47 -3 48
-46 3 c-37 2 -49 -1 -65 -20 l-19 -23 21 18 c11 9 35 17 53 17 28 0 32 -3 25
-17 -5 -10 -10 -204 -12 -430 l-2 -413 -47 0 c-25 0 -43 -3 -39 -7 4 -5 20 -8
34 -8 25 0 27 -3 30 -52 l3 -53 68 0 c59 0 70 3 91 25 14 15 35 25 52 25 32 0
33 -5 14 -51 -7 -19 -17 -44 -20 -56 l-7 -23 139 0 139 0 25 67 25 68 309 2
309 2 30 -47 c38 -59 108 -103 174 -110 79 -7 115 4 171 55 51 46 52 46 118
44 62 -2 69 0 93 26 28 30 47 83 29 83 -14 0 -13 43 2 58 20 20 27 13 18 -18
-5 -18 -5 -30 1 -30 5 0 9 9 9 19 0 11 5 23 10 26 6 3 10 19 10 36 0 39 15 37
28 -3 10 -33 10 -33 11 15 1 36 5 49 19 54 26 10 62 40 55 46 -3 3 -2 14 2 24
7 17 8 17 15 -2 7 -17 9 -14 9 13 1 41 21 42 21 1 0 -19 -7 -37 -17 -45 -10
-7 -13 -14 -7 -14 6 0 23 9 37 20 25 20 26 27 29 118 3 88 5 97 23 100 42 8
45 25 45 264 l0 228 28 0 c42 0 62 28 62 84 0 43 5 54 45 99 45 49 46 51 43
111 l-3 61 -415 0 -415 0 408 -2z m346 -191 c-35 -37 -73 -75 -86 -85 l-22
-18 18 41 c10 23 35 56 55 74 20 19 36 40 36 48 0 7 12 31 28 53 l27 40 3 -43
c3 -41 0 -47 -59 -110z m-49 -117 c0 -24 -24 -44 -37 -31 -9 8 14 56 27 56 5
0 10 -11 10 -25z m-84 -209 c-3 -77 -5 -180 -6 -228 0 -67 -3 -88 -13 -88 -11
0 -14 42 -15 216 -1 209 5 263 29 248 7 -4 9 -55 5 -148z m-76 -121 c0 -156
-2 -184 -14 -179 -11 4 -16 -5 -19 -38 -3 -38 -5 -40 -12 -19 -8 23 -9 24 -16
5 -4 -10 -5 -29 -2 -40 2 -12 0 -25 -7 -29 -8 -5 -8 -10 1 -21 9 -11 5 -21
-16 -46 l-27 -32 2 35 c6 76 5 78 -52 81 -46 3 -53 6 -56 26 -2 12 -8 20 -13
17 -5 -4 -9 1 -9 10 0 9 5 13 10 10 6 -3 10 -1 10 4 0 6 -4 11 -10 11 -5 0
-10 7 -10 15 0 8 6 14 13 12 9 -1 13 37 15 160 l2 163 83 -1 c71 -1 84 2 97
20 8 11 18 20 23 21 4 0 7 -83 7 -185z m-1833 10 c2 -71 0 -265 -5 -430 l-7
-300 -55 0 -55 0 -3 42 c-2 31 1 44 16 55 31 22 42 53 42 121 0 51 4 67 20 82
14 13 20 31 20 62 0 47 -6 52 -26 26 -11 -15 -13 9 -14 158 0 165 1 177 20
194 25 23 23 61 -2 57 -14 -2 -18 4 -18 33 0 35 1 36 33 33 l32 -3 2 -130z
m231 -127 l2 -258 -31 -80 -30 -80 -50 0 c-27 0 -49 3 -49 8 0 4 28 36 63 70
61 63 62 65 59 113 -2 27 -7 49 -10 49 -3 0 -32 -28 -63 -62 l-58 -63 -1 58
c0 44 5 65 20 84 11 15 20 41 20 60 0 26 -5 36 -20 40 -19 5 -20 14 -20 152 0
98 4 151 12 159 6 6 39 10 82 9 l71 -2 3 -257z m71 177 c1 -46 14 -74 26 -56
3 6 3 41 0 76 l-7 65 56 0 c38 0 56 -4 56 -12 0 -15 -141 -371 -145 -366 -6 8
-14 366 -7 372 9 10 20 -29 21 -79z m516 75 c10 -16 84 -413 79 -421 -7 -11
-342 -11 -348 0 -5 8 39 133 143 404 10 25 15 27 65 27 30 0 58 -5 61 -10z
m165 -2 c0 -10 2 -10 8 0 7 9 71 12 288 10 l279 -3 3 -424 c1 -234 -1 -428 -5
-432 -5 -5 -34 -5 -65 -2 l-57 6 20 38 c30 60 49 156 49 257 0 86 -1 92 -20
92 -11 0 -22 -6 -24 -12 -2 -7 -11 -44 -20 -83 -29 -118 -25 -115 -174 -115
l-127 0 -22 33 c-12 17 -28 48 -36 67 -9 19 -22 51 -31 72 -9 20 -16 41 -16
47 0 7 63 10 200 8 143 -1 200 1 200 9 0 8 -58 11 -202 10 l-203 -1 -12 37
c-18 54 -82 382 -77 390 8 13 44 9 44 -4z m-1069 -45 c-8 -15 -10 -15 -11 -2
0 17 10 32 18 25 2 -3 -1 -13 -7 -23z m1686 -5 c-3 -8 -6 -5 -6 6 -1 11 2 17
5 13 3 -3 4 -12 1 -19z m-1676 -90 c-3 -40 -6 -47 -11 -28 -7 28 -1 80 9 80 3
0 4 -24 2 -52z m122 -3 c6 -43 -6 -82 -15 -48 -5 17 2 97 7 91 2 -2 5 -21 8
-43z m-3 -85 c0 -5 -5 -10 -11 -10 -5 0 -7 5 -4 10 3 6 8 10 11 10 2 0 4 -4 4
-10z m-7 -68 c4 -40 -5 -57 -16 -29 -4 12 3 80 8 75 2 -2 5 -22 8 -46z m237
-6 c0 -3 -4 -8 -10 -11 -5 -3 -10 -1 -10 4 0 6 5 11 10 11 6 0 10 -2 10 -4z
m-220 -76 c0 -5 -4 -10 -10 -10 -5 0 -10 5 -10 10 0 6 5 10 10 10 6 0 10 -4
10 -10z m1780 -15 c0 -14 -4 -25 -9 -25 -4 0 -6 11 -3 25 2 14 6 25 8 25 2 0
4 -11 4 -25z m-1910 -11 c0 -8 -5 -12 -10 -9 -6 4 -8 11 -5 16 9 14 15 11 15
-7z m1688 -22 c-5 -26 -25 -25 -25 2 0 17 4 23 14 19 8 -3 13 -12 11 -21z
m-1562 -28 c-3 -9 -6 -32 -7 -52 0 -33 -1 -34 -9 -14 -11 26 -2 82 12 82 6 0
7 -7 4 -16z m728 -6 c-38 -47 -64 -60 -64 -35 0 8 10 19 23 25 17 8 -4 11 -96
11 -76 1 -116 5 -112 11 4 6 61 10 137 10 l131 0 -19 -22z m132 -15 c4 -23 1
-37 -10 -48 -9 -9 -16 -31 -16 -50 0 -18 -6 -36 -12 -38 -9 -4 -10 -6 -1 -6
13 -1 39 22 46 41 8 22 24 -4 32 -49 l7 -43 -84 -2 -83 -2 82 -3 c86 -4 93 -8
111 -58 5 -16 13 -38 17 -47 7 -17 -11 -18 -295 -18 l-302 0 7 28 c3 15 12 38
18 52 12 25 14 25 162 30 83 3 125 7 95 9 -30 2 -96 6 -147 10 l-92 6 15 35
c9 19 25 55 37 80 12 25 21 52 22 60 0 12 17 16 79 18 85 3 120 -3 97 -17 -7
-5 -12 -12 -11 -17 1 -5 -3 -10 -9 -12 -6 -2 -11 1 -11 7 0 6 -18 10 -42 10
-29 -2 -34 -3 -16 -6 14 -2 32 -12 40 -20 11 -14 11 -16 -4 -10 -10 3 -20 2
-23 -3 -4 -6 9 -10 29 -10 22 0 39 6 46 18 8 12 13 13 16 5 3 -7 18 -13 32
-13 16 0 22 3 15 8 -8 5 -4 16 12 36 l23 29 26 -29 c14 -16 26 -32 26 -36 0
-19 20 -6 20 13 0 11 5 29 11 41 9 18 8 19 -10 13 -24 -7 -44 2 -36 16 4 5 22
8 41 6 30 -2 35 -6 40 -34z m794 8 c0 -34 -17 -50 -27 -26 -12 33 -23 -10 -12
-50 9 -31 8 -41 -5 -53 -9 -9 -18 -13 -21 -10 -3 3 2 14 12 24 13 12 14 19 5
22 -6 2 -12 13 -12 25 0 12 -8 27 -18 33 -15 9 -18 8 -18 -7 0 -9 4 -17 9 -16
12 3 18 -31 7 -38 -5 -3 -7 -12 -4 -19 3 -8 1 -17 -5 -21 -6 -3 -11 -12 -11
-18 0 -7 4 -6 11 3 9 12 10 12 7 1 -3 -8 -9 -16 -15 -18 -7 -3 -13 19 -16 59
-2 35 -8 74 -12 87 -7 21 -6 23 13 19 14 -4 22 0 25 13 4 15 14 19 46 19 39 0
41 -2 41 -29z m0 -77 c0 -8 -4 -14 -10 -14 -5 0 -10 9 -10 21 0 11 5 17 10 14
6 -3 10 -13 10 -21z m-1540 6 c0 -5 -4 -10 -10 -10 -5 0 -10 5 -10 10 0 6 5
10 10 10 6 0 10 -4 10 -10z m770 -4 c0 -3 -4 -8 -10 -11 -5 -3 -10 -1 -10 4 0
6 5 11 10 11 6 0 10 -2 10 -4z m800 -11 c-7 -9 -15 -13 -17 -11 -7 7 7 26 19
26 6 0 6 -6 -2 -15z m-380 -144 c0 -5 -14 -14 -30 -21 -39 -16 -107 -7 -131
17 -18 17 -16 18 71 15 50 -2 90 -7 90 -11z m-1215 -55 l-18 -46 -49 0 -49 0
3 48 3 47 55 5 c30 3 59 2 64 -1 4 -4 0 -28 -9 -53z m1465 -40 c0 -3 -4 -8
-10 -11 -5 -3 -10 -1 -10 4 0 6 5 11 10 11 6 0 10 -2 10 -4z"/>
<path d="M2155 753 c-33 -37 -50 -64 -50 -82 0 -15 -5 -25 -12 -23 -7 1 -13
-3 -13 -9 0 -16 52 -1 66 19 7 9 26 32 43 51 22 24 31 45 31 68 0 18 -3 33 -7
32 -5 -1 -30 -26 -58 -56z"/>
<path d="M1585 960 c23 -26 72 -26 105 0 19 15 21 20 9 20 -9 0 -19 -7 -23
-15 -3 -9 -18 -15 -34 -15 -16 0 -35 7 -42 15 -7 8 -17 15 -23 15 -5 0 -2 -9
8 -20z"/>
<path d="M1625 920 l-220 -5 223 -5 c173 -4 222 -2 222 8 0 6 -1 11 -2 10 -2
-1 -102 -5 -223 -8z"/>
<path d="M1835 510 c3 -5 8 -10 11 -10 2 0 4 5 4 10 0 6 -5 10 -11 10 -5 0 -7
-4 -4 -10z"/>
<path d="M1200 505 c7 -8 16 -15 21 -15 5 0 9 7 9 15 0 9 -9 15 -21 15 -18 0
-19 -2 -9 -15z"/>
<path d="M682 1428 c4 -40 5 -81 2 -90 -3 -10 0 -18 6 -18 7 0 11 19 10 53 -1
28 -1 58 -1 65 1 18 36 15 78 -8 39 -21 60 -24 86 -14 10 4 -7 17 -50 40 -37
19 -69 32 -72 29 -3 -4 0 -9 7 -14 6 -4 -4 -7 -23 -7 -27 0 -35 4 -35 18 0 10
-4 18 -8 18 -5 0 -5 -33 0 -72z m113 22 c3 -5 2 -10 -4 -10 -5 0 -13 5 -16 10
-3 6 -2 10 4 10 5 0 13 -4 16 -10z"/>
<path d="M319 1453 l-24 -28 28 24 c25 23 32 31 24 31 -2 0 -14 -12 -28 -27z"/>
<path d="M2426 1465 c-3 -8 -17 -15 -31 -15 -30 0 -33 -15 -5 -23 14 -4 26 3
41 24 11 16 16 29 11 29 -6 0 -12 -7 -16 -15z"/>
<path d="M882 1415 c-17 -14 -35 -25 -41 -25 -7 0 -7 -8 0 -27 8 -23 7 -30 -8
-41 -15 -11 -20 -10 -28 2 -10 12 -13 12 -23 -5 -7 -11 -24 -25 -38 -31 -13
-6 -23 -17 -20 -24 3 -7 0 -15 -7 -17 -7 -2 -8 -8 -4 -13 5 -5 23 7 42 27 18
20 44 39 57 42 14 4 46 23 71 42 37 29 47 42 47 65 0 37 -10 37 -48 5z"/>
<path d="M805 1360 c-3 -5 -1 -10 4 -10 6 0 11 5 11 10 0 6 -2 10 -4 10 -3 0
-8 -4 -11 -10z"/>
<path d="M125 1250 c-33 -33 -55 -59 -50 -59 10 1 122 119 114 119 -3 0 -31
-27 -64 -60z"/>
<path d="M142 1230 c-17 -27 -16 -30 13 -30 13 0 29 8 34 19 14 25 2 35 -16
13 -14 -16 -14 -16 -9 1 7 23 -6 22 -22 -3z"/>
<path d="M51 1167 c-13 -13 -15 -124 -2 -132 5 -3 32 -6 60 -6 l51 -2 0 -58
c0 -61 -11 -81 -30 -52 -10 17 -11 16 -8 -2 4 -26 38 -32 55 -9 7 10 13 37 13
60 0 24 5 46 10 49 6 3 10 12 10 18 0 8 -24 12 -77 12 l-78 0 -3 52 c-3 48 -1
52 25 60 26 9 26 10 6 15 -12 3 -26 1 -32 -5z"/>
<path d="M199 856 c-14 -31 -14 -33 0 -26 9 5 24 11 34 14 9 3 17 15 17 26 0
33 -33 23 -51 -14z"/>
<path d="M248 845 c-3 -4 -1 -19 5 -34 12 -32 5 -59 -19 -68 -24 -9 -48 10
-55 43 l-7 29 -1 -29 c-1 -17 7 -39 19 -51 27 -29 55 -185 30 -170 -5 3 -10 2
-10 -3 0 -13 32 -25 40 -15 4 4 4 45 -1 91 -8 76 -7 86 12 111 13 18 19 39 17
61 -3 31 -17 48 -30 35z"/>
</g>
</svg>
