<svg width="397" height="115" viewBox="0 0 397 115" fill="none" xmlns="http://www.w3.org/2000/svg">
<path d="M118.289 46V2.53768H128.794V37.4688H146.875V46H118.289ZM162.698 46.5518C160.618 46.5518 158.772 46.2051 157.159 45.5119C155.56 44.8045 154.294 43.7434 153.36 42.3286C152.44 40.8997 151.981 39.11 151.981 36.9595C151.981 35.1486 152.299 33.6206 152.936 32.3756C153.572 31.1306 154.449 30.119 155.567 29.3409C156.685 28.5627 157.972 27.9756 159.429 27.5794C160.887 27.1692 162.443 26.8933 164.098 26.7518C165.952 26.582 167.444 26.4052 168.576 26.2212C169.708 26.0232 170.528 25.7473 171.038 25.3936C171.561 25.0258 171.823 24.5094 171.823 23.8444V23.7383C171.823 22.6489 171.448 21.8071 170.698 21.2129C169.948 20.6187 168.937 20.3216 167.663 20.3216C166.291 20.3216 165.188 20.6187 164.353 21.2129C163.518 21.8071 162.988 22.6277 162.761 23.6746L153.19 23.3351C153.473 21.3544 154.202 19.5859 155.376 18.0296C156.564 16.4592 158.191 15.2283 160.257 14.337C162.337 13.4316 164.834 12.9788 167.748 12.9788C169.828 12.9788 171.745 13.2264 173.499 13.7216C175.254 14.2026 176.782 14.91 178.083 15.8438C179.385 16.7634 180.389 17.8952 181.097 19.2393C181.818 20.5833 182.179 22.1184 182.179 23.8444V46H172.417V41.4585H172.162C171.582 42.5621 170.84 43.4958 169.934 44.2598C169.043 45.0238 167.989 45.5968 166.772 45.9788C165.57 46.3608 164.211 46.5518 162.698 46.5518ZM165.902 39.7608C167.02 39.7608 168.024 39.5344 168.916 39.0817C169.821 38.6289 170.543 38.0064 171.08 37.2142C171.618 36.4077 171.887 35.474 171.887 34.4129V31.3145C171.59 31.4701 171.229 31.6116 170.804 31.7389C170.394 31.8663 169.941 31.9865 169.446 32.0997C168.951 32.2129 168.442 32.3119 167.918 32.3968C167.395 32.4817 166.892 32.5595 166.411 32.6302C165.435 32.7859 164.6 33.0264 163.907 33.3518C163.228 33.6772 162.705 34.1016 162.337 34.6251C161.983 35.1344 161.806 35.7428 161.806 36.4502C161.806 37.5254 162.188 38.346 162.952 38.9119C163.73 39.4778 164.714 39.7608 165.902 39.7608ZM200.097 27.4097V46H189.72V13.4033H199.588V19.3878H199.949C200.67 17.393 201.901 15.8296 203.641 14.6978C205.381 13.5518 207.454 12.9788 209.859 12.9788C212.151 12.9788 214.139 13.4952 215.823 14.528C217.52 15.5467 218.836 16.9756 219.77 18.8148C220.718 20.6399 221.185 22.7762 221.171 25.2238V46H210.793V27.2611C210.807 25.4502 210.347 24.0354 209.414 23.0168C208.494 21.9981 207.214 21.4888 205.572 21.4888C204.483 21.4888 203.521 21.7293 202.686 22.2103C201.866 22.6772 201.229 23.3492 200.776 24.2264C200.338 25.1036 200.111 26.1647 200.097 27.4097ZM243.985 58.9029C240.887 58.9029 238.234 58.4714 236.027 57.6083C233.82 56.7453 232.087 55.564 230.828 54.0643C229.569 52.5646 228.812 50.8669 228.557 48.9711L238.383 48.4193C238.567 49.0842 238.906 49.6643 239.402 50.1595C239.911 50.6547 240.569 51.0366 241.375 51.3055C242.196 51.5743 243.158 51.7087 244.261 51.7087C246.002 51.7087 247.438 51.2842 248.569 50.4354C249.715 49.6006 250.288 48.1363 250.288 46.0424V40.3125H249.928C249.517 41.317 248.895 42.2154 248.06 43.0077C247.225 43.8 246.185 44.4225 244.94 44.8752C243.71 45.328 242.295 45.5543 240.696 45.5543C238.319 45.5543 236.14 45.0026 234.16 43.899C232.193 42.7814 230.616 41.0553 229.427 38.7209C228.253 36.3724 227.666 33.3518 227.666 29.6592C227.666 25.8534 228.274 22.7196 229.491 20.2579C230.708 17.782 232.299 15.9499 234.266 14.7615C236.247 13.573 238.376 12.9788 240.654 12.9788C242.366 12.9788 243.83 13.2759 245.047 13.8701C246.277 14.4502 247.289 15.2 248.081 16.1197C248.874 17.0393 249.475 17.9943 249.885 18.9846H250.182V13.4033H260.517V46.1273C260.517 48.8862 259.824 51.2135 258.438 53.1093C257.051 55.0051 255.113 56.4411 252.623 57.4173C250.133 58.4077 247.254 58.9029 243.985 58.9029ZM244.304 37.9994C245.563 37.9994 246.638 37.6669 247.53 37.0019C248.421 36.337 249.107 35.382 249.588 34.137C250.069 32.892 250.31 31.3994 250.31 29.6592C250.31 27.8907 250.069 26.3698 249.588 25.0965C249.121 23.809 248.435 22.8187 247.53 22.1254C246.638 21.4322 245.563 21.0856 244.304 21.0856C243.016 21.0856 241.927 21.4393 241.036 22.1467C240.144 22.8541 239.465 23.8515 238.998 25.1389C238.546 26.4122 238.319 27.919 238.319 29.6592C238.319 31.3994 238.553 32.892 239.02 34.137C239.486 35.382 240.158 36.337 241.036 37.0019C241.927 37.6669 243.016 37.9994 244.304 37.9994ZM284.393 46H268.328V2.53768H284.372C288.8 2.53768 292.613 3.40778 295.811 5.14797C299.022 6.87401 301.498 9.36404 303.238 12.6181C304.979 15.8579 305.849 19.7344 305.849 24.2476C305.849 28.7749 304.979 32.6656 303.238 35.9196C301.512 39.1736 299.043 41.6707 295.832 43.4109C292.62 45.137 288.807 46 284.393 46ZM278.833 37.0444H283.99C286.424 37.0444 288.482 36.6341 290.166 35.8135C291.863 34.9788 293.144 33.6277 294.007 31.7601C294.884 29.8785 295.323 27.3743 295.323 24.2476C295.323 21.1209 294.884 18.6309 294.007 16.7775C293.13 14.91 291.835 13.566 290.123 12.7454C288.425 11.9107 286.332 11.4933 283.842 11.4933H278.833V37.0444ZM328.414 46.6154C325.005 46.6154 322.062 45.9434 319.586 44.5994C317.124 43.2412 315.228 41.31 313.898 38.8058C312.583 36.2875 311.925 33.2952 311.925 29.829C311.925 26.4618 312.59 23.519 313.92 21.0007C315.25 18.4682 317.124 16.5016 319.543 15.101C321.963 13.6862 324.814 12.9788 328.096 12.9788C330.416 12.9788 332.538 13.3396 334.462 14.0611C336.387 14.7827 338.049 15.8508 339.45 17.2656C340.85 18.6804 341.94 20.4277 342.718 22.5074C343.496 24.573 343.885 26.9428 343.885 29.6167V32.2058H315.554V26.1788H334.229C334.215 25.0753 333.953 24.092 333.444 23.229C332.934 22.3659 332.234 21.6939 331.343 21.2129C330.466 20.7177 329.454 20.4701 328.308 20.4701C327.148 20.4701 326.108 20.7319 325.188 21.2553C324.269 21.7647 323.54 22.465 323.003 23.3563C322.465 24.2335 322.182 25.2309 322.154 26.3486V32.4817C322.154 33.8116 322.415 34.9788 322.939 35.9833C323.462 36.9736 324.205 37.7447 325.167 38.2965C326.129 38.8482 327.275 39.1241 328.605 39.1241C329.525 39.1241 330.36 38.9968 331.109 38.7421C331.859 38.4875 332.503 38.1126 333.041 37.6174C333.578 37.1222 333.981 36.5138 334.25 35.7923L343.779 36.0682C343.383 38.2045 342.513 40.065 341.169 41.6495C339.839 43.2199 338.091 44.4437 335.927 45.3209C333.762 46.1839 331.258 46.6154 328.414 46.6154ZM381.125 13.4033L369.942 46H358.057L346.895 13.4033H357.824L363.83 35.856H364.169L370.196 13.4033H381.125Z" fill="white"/>
<path d="M154.273 80.5294H143.888C143.75 79.4633 143.466 78.501 143.037 77.6425C142.608 76.7841 142.04 76.0503 141.334 75.441C140.628 74.8318 139.79 74.368 138.821 74.0495C137.865 73.7172 136.806 73.5511 135.643 73.5511C133.58 73.5511 131.801 74.0564 130.306 75.0672C128.824 76.078 127.682 77.5387 126.879 79.4494C126.09 81.3602 125.695 83.6724 125.695 86.3863C125.695 89.2108 126.096 91.5785 126.899 93.4892C127.716 95.3861 128.859 96.8192 130.326 97.7884C131.808 98.7438 133.559 99.2214 135.581 99.2214C136.716 99.2214 137.748 99.0761 138.675 98.7853C139.617 98.4945 140.441 98.0722 141.147 97.5184C141.867 96.9507 142.455 96.2653 142.912 95.4623C143.383 94.6454 143.708 93.7246 143.888 92.7L154.273 92.7623C154.093 94.6454 153.546 96.5007 152.632 98.3284C151.732 100.156 150.493 101.824 148.915 103.334C147.336 104.829 145.412 106.02 143.141 106.906C140.884 107.792 138.295 108.235 135.373 108.235C131.524 108.235 128.076 107.391 125.03 105.701C121.998 103.998 119.603 101.52 117.844 98.2661C116.086 95.0123 115.207 91.0523 115.207 86.3863C115.207 81.7063 116.1 77.7395 117.886 74.4857C119.672 71.2319 122.088 68.7604 125.134 67.0712C128.18 65.382 131.593 64.5374 135.373 64.5374C137.949 64.5374 140.33 64.8974 142.518 65.6173C144.705 66.3235 146.63 67.3619 148.291 68.7327C149.953 70.0896 151.303 71.758 152.341 73.738C153.38 75.718 154.024 77.9818 154.273 80.5294ZM196.208 86.3863C196.208 91.0662 195.308 95.033 193.508 98.2868C191.708 101.541 189.271 104.012 186.197 105.701C183.137 107.391 179.704 108.235 175.896 108.235C172.075 108.235 168.634 107.384 165.574 105.681C162.514 103.978 160.084 101.506 158.284 98.2661C156.498 95.0123 155.605 91.0523 155.605 86.3863C155.605 81.7063 156.498 77.7395 158.284 74.4857C160.084 71.2319 162.514 68.7604 165.574 67.0712C168.634 65.382 172.075 64.5374 175.896 64.5374C179.704 64.5374 183.137 65.382 186.197 67.0712C189.271 68.7604 191.708 71.2319 193.508 74.4857C195.308 77.7395 196.208 81.7063 196.208 86.3863ZM185.699 86.3863C185.699 83.6171 185.304 81.2771 184.515 79.3664C183.74 77.4556 182.618 76.0087 181.151 75.0257C179.697 74.0426 177.945 73.5511 175.896 73.5511C173.861 73.5511 172.109 74.0426 170.642 75.0257C169.174 76.0087 168.045 77.4556 167.256 79.3664C166.481 81.2771 166.093 83.6171 166.093 86.3863C166.093 89.1554 166.481 91.4954 167.256 93.4061C168.045 95.3169 169.174 96.7638 170.642 97.7468C172.109 98.7299 173.861 99.2214 175.896 99.2214C177.945 99.2214 179.697 98.7299 181.151 97.7468C182.618 96.7638 183.74 95.3169 184.515 93.4061C185.304 91.4954 185.699 89.1554 185.699 86.3863ZM234.317 65.1189V107.654H225.594L208.667 83.1048H208.397V107.654H198.116V65.1189H206.964L223.704 89.6262H224.057V65.1189H234.317Z" fill="#E16C17"/>
<path d="M245.075 107.654V100.26L260.589 86.677C261.752 85.6247 262.742 84.6624 263.559 83.7901C264.376 82.904 264.999 82.0179 265.429 81.1317C265.858 80.2317 266.072 79.2556 266.072 78.2033C266.072 77.0264 265.816 76.0226 265.304 75.1918C264.792 74.3472 264.085 73.6965 263.185 73.2395C262.286 72.7826 261.254 72.5542 260.091 72.5542C258.914 72.5542 257.883 72.7965 256.996 73.2811C256.11 73.7518 255.418 74.4372 254.919 75.3372C254.435 76.2372 254.193 77.331 254.193 78.6187H244.452C244.452 75.7249 245.103 73.2257 246.404 71.1211C247.706 69.0165 249.533 67.3965 251.887 66.2612C254.255 65.112 257.003 64.5374 260.132 64.5374C263.359 64.5374 266.162 65.0774 268.544 66.1573C270.925 67.2373 272.767 68.7465 274.068 70.685C275.384 72.6095 276.041 74.8457 276.041 77.3933C276.041 79.0133 275.716 80.6194 275.065 82.2117C274.415 83.804 273.245 85.5624 271.555 87.487C269.88 89.4116 267.499 91.7169 264.411 94.4031L259.322 99.0968V99.3668H276.561V107.654H245.075ZM295.868 108.692C292.157 108.692 288.959 107.813 286.273 106.054C283.587 104.282 281.517 101.741 280.063 98.4322C278.609 95.1092 277.889 91.1146 277.903 86.4486C277.917 81.7825 278.644 77.8225 280.084 74.5687C281.538 71.3011 283.601 68.8158 286.273 67.1127C288.959 65.3958 292.157 64.5374 295.868 64.5374C299.579 64.5374 302.777 65.3958 305.463 67.1127C308.163 68.8158 310.24 71.3011 311.694 74.5687C313.148 77.8364 313.868 81.7963 313.854 86.4486C313.854 91.1285 313.127 95.13 311.673 98.453C310.219 101.776 308.149 104.317 305.463 106.075C302.791 107.82 299.593 108.692 295.868 108.692ZM295.868 100.281C298.083 100.281 299.876 99.1522 301.247 96.8953C302.618 94.6246 303.296 91.1423 303.283 86.4486C303.283 83.3748 302.971 80.841 302.348 78.8471C301.725 76.8395 300.86 75.3441 299.752 74.3611C298.644 73.378 297.35 72.8865 295.868 72.8865C293.667 72.8865 291.887 74.0011 290.53 76.2303C289.174 78.4456 288.488 81.8517 288.474 86.4486C288.46 89.5639 288.758 92.1462 289.367 94.1954C289.99 96.2446 290.863 97.7745 291.984 98.7853C293.106 99.7822 294.4 100.281 295.868 100.281ZM315.648 107.654V100.26L331.162 86.677C332.325 85.6247 333.315 84.6624 334.132 83.7901C334.949 82.904 335.572 82.0179 336.001 81.1317C336.431 80.2317 336.645 79.2556 336.645 78.2033C336.645 77.0264 336.389 76.0226 335.877 75.1918C335.365 74.3472 334.658 73.6965 333.758 73.2395C332.858 72.7826 331.827 72.5542 330.664 72.5542C329.487 72.5542 328.455 72.7965 327.569 73.2811C326.683 73.7518 325.991 74.4372 325.492 75.3372C325.008 76.2372 324.766 77.331 324.766 78.6187H315.025C315.025 75.7249 315.676 73.2257 316.977 71.1211C318.279 69.0165 320.106 67.3965 322.46 66.2612C324.828 65.112 327.576 64.5374 330.705 64.5374C333.932 64.5374 336.735 65.0774 339.117 66.1573C341.498 67.2373 343.34 68.7465 344.641 70.685C345.957 72.6095 346.614 74.8457 346.614 77.3933C346.614 79.0133 346.289 80.6194 345.638 82.2117C344.988 83.804 343.818 85.5624 342.128 87.487C340.453 89.4116 338.071 91.7169 334.984 94.4031L329.895 99.0968V99.3668H347.134V107.654H315.648ZM347.417 100.592V92.5754L364.842 65.1189H371.966V76.0018H367.833L357.635 92.16V92.4923H382.869V100.592H347.417ZM367.957 107.654V98.1415L368.165 94.6315V65.1189H377.781V107.654H367.957Z" fill="white"/>
<circle cx="49.8332" cy="55.5833" r="38.792" stroke="white" stroke-width="4.19373"/>
<path d="M30.8975 74.964L44.6688 44.1652L41.9542 39.2996L37.5183 39.2996L37.5183 34.2047L44.1391 34.2047C45.5295 34.2047 46.7212 34.867 47.2178 35.8096L66.1865 69.8691L70.6224 69.8691L70.6224 74.964L64.0016 74.964C62.5781 74.964 61.3864 74.2762 60.9229 73.3337L48.542 51.1453L37.9155 74.964L30.8975 74.964Z" fill="#E16C17"/>
</svg>
