<svg width="258" height="75" viewBox="0 0 258 75" fill="none" xmlns="http://www.w3.org/2000/svg">
<path d="M82.0393 30.0581V1.74966H88.8815V24.5014H100.658V30.0581H82.0393Z" fill="white"/>
<path d="M110.964 30.4175C109.609 30.4175 108.407 30.1917 107.356 29.7402C106.315 29.2794 105.49 28.5883 104.882 27.6668C104.283 26.7361 103.983 25.5704 103.983 24.1697C103.983 22.9902 104.191 21.995 104.605 21.1841C105.02 20.3731 105.591 19.7143 106.319 19.2074C107.047 18.7006 107.886 18.3182 108.835 18.0602C109.784 17.7929 110.798 17.6133 111.876 17.5211C113.083 17.4105 114.055 17.2953 114.793 17.1755C115.53 17.0465 116.064 16.8668 116.396 16.6365C116.737 16.3969 116.907 16.0605 116.907 15.6274V15.5583C116.907 14.8488 116.663 14.3005 116.175 13.9134C115.687 13.5264 115.028 13.3329 114.198 13.3329C113.304 13.3329 112.586 13.5264 112.042 13.9134C111.498 14.3005 111.153 14.8349 111.005 15.5168L104.771 15.2957C104.956 14.0056 105.43 12.8537 106.195 11.8401C106.969 10.8172 108.029 10.0155 109.374 9.43496C110.729 8.8452 112.355 8.55032 114.254 8.55032C115.608 8.55032 116.857 8.71158 117.999 9.0341C119.142 9.34741 120.137 9.80816 120.985 10.4164C121.833 11.0153 122.487 11.7525 122.948 12.6279C123.418 13.5034 123.653 14.5032 123.653 15.6274V30.0581H117.295V27.1001H117.129C116.751 27.8188 116.267 28.427 115.677 28.9246C115.097 29.4222 114.41 29.7955 113.618 30.0443C112.834 30.2931 111.95 30.4175 110.964 30.4175ZM113.051 25.9943C113.779 25.9943 114.433 25.8468 115.014 25.552C115.604 25.2571 116.074 24.8516 116.424 24.3356C116.774 23.8103 116.949 23.2021 116.949 22.511V20.4929C116.755 20.5943 116.52 20.6864 116.244 20.7694C115.977 20.8523 115.682 20.9306 115.359 21.0044C115.037 21.0781 114.705 21.1426 114.364 21.1979C114.023 21.2532 113.696 21.3038 113.383 21.3499C112.747 21.4513 112.203 21.6079 111.752 21.8199C111.309 22.0318 110.968 22.3083 110.729 22.6492C110.498 22.981 110.383 23.3772 110.383 23.838C110.383 24.5383 110.632 25.0728 111.13 25.4414C111.637 25.81 112.277 25.9943 113.051 25.9943Z" fill="white"/>
<path d="M135.323 17.9496V30.0581H128.564V8.82677H134.992V12.7247H135.227C135.697 11.4254 136.498 10.4071 137.632 9.66994C138.765 8.92353 140.115 8.55032 141.682 8.55032C143.175 8.55032 144.469 8.88667 145.566 9.55936C146.672 10.2228 147.529 11.1535 148.137 12.3515C148.754 13.5402 149.058 14.9317 149.049 16.5259V30.0581H142.29V17.8528C142.299 16.6733 142 15.7518 141.392 15.0883C140.793 14.4249 139.959 14.0931 138.89 14.0931C138.18 14.0931 137.553 14.2498 137.01 14.5631C136.475 14.8672 136.061 15.3049 135.766 15.8762C135.48 16.4476 135.333 17.1387 135.323 17.9496Z" fill="white"/>
<path d="M163.909 38.4621C161.891 38.4621 160.163 38.1811 158.726 37.619C157.288 37.0569 156.159 36.2874 155.339 35.3106C154.519 34.3338 154.026 33.228 153.86 31.9932L160.26 31.6338C160.38 32.0669 160.601 32.4448 160.924 32.7673C161.255 33.0898 161.684 33.3386 162.209 33.5137C162.744 33.6888 163.37 33.7763 164.089 33.7763C165.222 33.7763 166.158 33.4999 166.895 32.947C167.641 32.4033 168.015 31.4495 168.015 30.0857V26.3537H167.78C167.512 27.0079 167.107 27.5931 166.563 28.1091C166.02 28.6252 165.342 29.0306 164.531 29.3255C163.73 29.6204 162.808 29.7678 161.767 29.7678C160.219 29.7678 158.8 29.4084 157.509 28.6897C156.229 27.9617 155.201 26.8374 154.427 25.317C153.662 23.7873 153.28 21.8199 153.28 19.4148C153.28 16.9359 153.676 14.8948 154.469 13.2914C155.261 11.6788 156.298 10.4855 157.579 9.71141C158.869 8.93735 160.256 8.55032 161.739 8.55032C162.854 8.55032 163.808 8.74383 164.6 9.13086C165.402 9.50868 166.061 9.99707 166.577 10.596C167.093 11.195 167.485 11.817 167.752 12.4621H167.945V8.82677H174.677V30.141C174.677 31.9379 174.225 33.4538 173.322 34.6886C172.419 35.9234 171.157 36.8587 169.535 37.4946C167.913 38.1396 166.038 38.4621 163.909 38.4621ZM164.117 24.847C164.937 24.847 165.637 24.6305 166.218 24.1974C166.798 23.7642 167.245 23.1422 167.558 22.3313C167.872 21.5204 168.028 20.5482 168.028 19.4148C168.028 18.2629 167.872 17.2723 167.558 16.4429C167.254 15.6044 166.807 14.9593 166.218 14.5078C165.637 14.0563 164.937 13.8305 164.117 13.8305C163.278 13.8305 162.568 14.0609 161.988 14.5216C161.407 14.9824 160.965 15.632 160.661 16.4706C160.366 17.2999 160.219 18.2813 160.219 19.4148C160.219 20.5482 160.371 21.5204 160.675 22.3313C160.979 23.1422 161.417 23.7642 161.988 24.1974C162.568 24.6305 163.278 24.847 164.117 24.847Z" fill="white"/>
<path d="M190.228 30.0581H179.765V1.74966H190.214C193.099 1.74966 195.582 2.31639 197.665 3.44983C199.757 4.57405 201.369 6.19589 202.503 8.31534C203.636 10.4256 204.203 12.9505 204.203 15.89C204.203 18.8388 203.636 21.373 202.503 23.4924C201.378 25.6119 199.77 27.2383 197.679 28.3717C195.587 29.496 193.103 30.0581 190.228 30.0581ZM186.607 24.225H189.966C191.551 24.225 192.891 23.9578 193.988 23.4233C195.094 22.8796 195.928 21.9996 196.49 20.7832C197.061 19.5576 197.347 17.9266 197.347 15.89C197.347 13.8535 197.061 12.2317 196.49 11.0245C195.918 9.80816 195.075 8.93274 193.96 8.39827C192.854 7.85459 191.491 7.58275 189.869 7.58275H186.607V24.225Z" fill="white"/>
<path d="M218.9 30.4589C216.68 30.4589 214.763 30.0212 213.15 29.1458C211.547 28.2612 210.312 27.0033 209.446 25.3723C208.589 23.732 208.16 21.783 208.16 19.5254C208.16 17.3322 208.593 15.4155 209.46 13.7752C210.326 12.1257 211.547 10.8448 213.123 9.93256C214.698 9.01107 216.555 8.55032 218.693 8.55032C220.204 8.55032 221.587 8.7853 222.84 9.25526C224.093 9.72523 225.176 10.421 226.088 11.3425C227 12.264 227.71 13.402 228.217 14.7566C228.724 16.102 228.977 17.6455 228.977 19.3871V21.0735H210.524V17.1479H222.688C222.679 16.4291 222.508 15.7887 222.176 15.2266C221.845 14.6645 221.388 14.2267 220.808 13.9134C220.237 13.5909 219.578 13.4297 218.831 13.4297C218.076 13.4297 217.398 13.6001 216.799 13.9411C216.2 14.2728 215.726 14.729 215.376 15.3095C215.026 15.8808 214.841 16.5305 214.823 17.2585V21.2532C214.823 22.1194 214.993 22.8796 215.334 23.5339C215.675 24.1789 216.159 24.6811 216.786 25.0405C217.412 25.3999 218.159 25.5796 219.025 25.5796C219.624 25.5796 220.168 25.4967 220.656 25.3308C221.144 25.1649 221.564 24.9207 221.914 24.5982C222.264 24.2757 222.527 23.8794 222.702 23.4095L228.908 23.5892C228.65 24.9806 228.083 26.1924 227.208 27.2245C226.342 28.2473 225.203 29.0444 223.794 29.6158C222.384 30.1779 220.753 30.4589 218.9 30.4589Z" fill="white"/>
<path d="M253.233 8.82677L245.949 30.0581H238.208L230.937 8.82677H238.056L241.968 23.4509H242.189L246.114 8.82677H253.233Z" fill="white"/>
<path d="M105.477 52.2587H98.7129C98.6227 51.5643 98.4379 50.9375 98.1583 50.3784C97.8787 49.8193 97.509 49.3413 97.049 48.9445C96.5891 48.5477 96.0435 48.2456 95.4122 48.0382C94.79 47.8217 94.1001 47.7135 93.3425 47.7135C91.9988 47.7135 90.8399 48.0427 89.866 48.701C88.901 49.3593 88.157 50.3108 87.6339 51.5553C87.1199 52.7998 86.8629 54.3059 86.8629 56.0735C86.8629 57.9132 87.1244 59.4553 87.6475 60.6999C88.1795 61.9354 88.9235 62.8688 89.8795 63.5001C90.8444 64.1223 91.9853 64.4334 93.3019 64.4334C94.0414 64.4334 94.7133 64.3388 95.3175 64.1494C95.9308 63.96 96.4674 63.6849 96.9273 63.3242C97.3963 62.9544 97.7795 62.508 98.0771 61.985C98.3838 61.4529 98.5957 60.8532 98.7129 60.1858L105.477 60.2264C105.359 61.4529 105.003 62.6613 104.408 63.8518C103.822 65.0422 103.015 66.1289 101.987 67.1119C100.958 68.0859 99.7049 68.8614 98.2259 69.4386C96.7559 70.0158 95.0695 70.3044 93.1667 70.3044C90.6596 70.3044 88.414 69.7543 86.43 68.654C84.455 67.5448 82.8948 65.9305 81.7495 63.8112C80.6042 61.6919 80.0315 59.1126 80.0315 56.0735C80.0315 53.0253 80.6132 50.4415 81.7765 48.3222C82.9399 46.2029 84.5136 44.5932 86.4976 43.4929C88.4817 42.3927 90.7047 41.8426 93.1667 41.8426C94.8441 41.8426 96.3952 42.0771 97.8201 42.546C99.245 43.0059 100.499 43.6823 101.581 44.5751C102.663 45.4589 103.542 46.5456 104.219 47.8352C104.895 49.1249 105.314 50.5994 105.477 52.2587Z" fill="white"/>
<path d="M132.79 56.0735C132.79 59.1217 132.204 61.7054 131.032 63.8247C129.859 65.944 128.272 67.5538 126.27 68.654C124.277 69.7543 122.041 70.3044 119.561 70.3044C117.071 70.3044 114.83 69.7497 112.837 68.6405C110.844 67.5312 109.262 65.9215 108.089 63.8112C106.926 61.6919 106.344 59.1126 106.344 56.0735C106.344 53.0253 106.926 50.4415 108.089 48.3222C109.262 46.2029 110.844 44.5932 112.837 43.4929C114.83 42.3927 117.071 41.8426 119.561 41.8426C122.041 41.8426 124.277 42.3927 126.27 43.4929C128.272 44.5932 129.859 46.2029 131.032 48.3222C132.204 50.4415 132.79 53.0253 132.79 56.0735ZM125.945 56.0735C125.945 54.2698 125.688 52.7457 125.174 51.5012C124.669 50.2567 123.939 49.3143 122.983 48.674C122.036 48.0337 120.895 47.7135 119.561 47.7135C118.235 47.7135 117.094 48.0337 116.138 48.674C115.182 49.3143 114.447 50.2567 113.933 51.5012C113.428 52.7457 113.176 54.2698 113.176 56.0735C113.176 57.8771 113.428 59.4012 113.933 60.6458C114.447 61.8903 115.182 62.8327 116.138 63.473C117.094 64.1133 118.235 64.4334 119.561 64.4334C120.895 64.4334 122.036 64.1133 122.983 63.473C123.939 62.8327 124.669 61.8903 125.174 60.6458C125.688 59.4012 125.945 57.8771 125.945 56.0735Z" fill="white"/>
<path d="M157.612 42.2214V69.9256H151.93L140.905 53.9361H140.729V69.9256H134.033V42.2214H139.796L150.699 58.1838H150.929V42.2214H157.612Z" fill="white"/>
<path d="M164.619 69.9256V65.1098L174.724 56.2629C175.482 55.5775 176.126 54.9507 176.658 54.3825C177.191 53.8054 177.596 53.2282 177.876 52.651C178.155 52.0648 178.295 51.429 178.295 50.7437C178.295 49.9771 178.128 49.3233 177.795 48.7822C177.461 48.2321 177.001 47.8082 176.415 47.5106C175.829 47.213 175.157 47.0642 174.399 47.0642C173.633 47.0642 172.961 47.222 172.384 47.5376C171.807 47.8443 171.356 48.2907 171.031 48.8769C170.715 49.4631 170.558 50.1755 170.558 51.0142H164.213C164.213 49.1294 164.637 47.5016 165.485 46.1308C166.332 44.76 167.523 43.7049 169.056 42.9654C170.598 42.2168 172.388 41.8426 174.426 41.8426C176.528 41.8426 178.354 42.1943 179.905 42.8977C181.456 43.6012 182.656 44.5841 183.503 45.8467C184.36 47.1003 184.788 48.5567 184.788 50.2161C184.788 51.2712 184.577 52.3173 184.153 53.3545C183.729 54.3916 182.967 55.5369 181.867 56.7904C180.775 58.044 179.224 59.5455 177.213 61.2951L173.899 64.3523V64.5281H185.127V69.9256H164.619Z" fill="white"/>
<path d="M197.702 70.602C195.285 70.602 193.202 70.0293 191.452 68.884C189.703 67.7296 188.355 66.0748 187.408 63.9194C186.461 61.755 185.992 59.1532 186.001 56.1141C186.01 53.0749 186.483 50.4957 187.421 48.3763C188.368 46.248 189.712 44.6292 191.452 43.52C193.202 42.4017 195.285 41.8426 197.702 41.8426C200.119 41.8426 202.202 42.4017 203.952 43.52C205.71 44.6292 207.063 46.248 208.01 48.3763C208.957 50.5047 209.426 53.0839 209.417 56.1141C209.417 59.1622 208.943 61.7685 207.997 63.9329C207.05 66.0973 205.701 67.7522 203.952 68.8975C202.211 70.0338 200.128 70.602 197.702 70.602ZM197.702 65.1233C199.145 65.1233 200.313 64.3884 201.206 62.9184C202.099 61.4394 202.54 59.1713 202.531 56.1141C202.531 54.112 202.329 52.4616 201.923 51.163C201.517 49.8553 200.953 48.8814 200.232 48.2411C199.51 47.6008 198.667 47.2806 197.702 47.2806C196.268 47.2806 195.109 48.0066 194.226 49.4585C193.342 50.9015 192.895 53.12 192.886 56.1141C192.877 58.1432 193.071 59.8251 193.468 61.1598C193.874 62.4945 194.442 63.491 195.173 64.1494C195.903 64.7987 196.746 65.1233 197.702 65.1233Z" fill="white"/>
<path d="M210.585 69.9256V65.1098L220.69 56.2629C221.448 55.5775 222.093 54.9507 222.625 54.3825C223.157 53.8054 223.563 53.2282 223.842 52.651C224.122 52.0648 224.262 51.429 224.262 50.7437C224.262 49.9771 224.095 49.3233 223.761 48.7822C223.428 48.2321 222.968 47.8082 222.381 47.5106C221.795 47.213 221.123 47.0642 220.366 47.0642C219.599 47.0642 218.927 47.222 218.35 47.5376C217.773 47.8443 217.322 48.2907 216.997 48.8769C216.682 49.4631 216.524 50.1755 216.524 51.0142H210.18C210.18 49.1294 210.603 47.5016 211.451 46.1308C212.299 44.76 213.489 43.7049 215.022 42.9654C216.565 42.2168 218.355 41.8426 220.393 41.8426C222.494 41.8426 224.32 42.1943 225.871 42.8977C227.423 43.6012 228.622 44.5841 229.47 45.8467C230.327 47.1003 230.755 48.5567 230.755 50.2161C230.755 51.2712 230.543 52.3173 230.119 53.3545C229.695 54.3916 228.933 55.5369 227.833 56.7904C226.742 58.044 225.191 59.5455 223.18 61.2951L219.865 64.3523V64.5281H231.093V69.9256H210.585Z" fill="white"/>
<path d="M231.277 65.3263V60.1047L242.627 42.2214H247.267V49.3097H244.575L237.933 59.8341V60.0505H254.369V65.3263H231.277ZM244.656 69.9256V63.73L244.791 61.4439V42.2214H251.055V69.9256H244.656Z" fill="white"/>
<path d="M26.9677 6.75485H8.79077L40.4437 65.9866H59.2474L26.9677 6.75485Z" fill="#E16C17"/>
<path d="M13.4533 65.9838C19.7621 65.8462 24.834 60.689 24.834 54.3472C24.834 47.9189 19.6229 42.7077 13.1946 42.7077C6.76633 42.7077 1.55518 47.9189 1.55518 54.3472C1.55518 54.4336 1.55612 54.5198 1.55799 54.6058H1.55518V65.9866H13.4533V65.9838Z" fill="#DB3000"/>
</svg>
