<svg width="25" height="17" viewBox="0 0 25 17" fill="none"
    xmlns="http://www.w3.org/2000/svg">
    <path fill-rule="evenodd" clip-rule="evenodd" d="M21.9566 0.651712C22.9899 0.9283 23.8019 1.74029 24.0785 2.77354C24.5783 4.64445 24.5803 8.55027 24.5803 8.55027C24.5803 8.55027 24.5803 12.4561 24.0785 14.327C23.8019 15.3603 22.9899 16.1723 21.9566 16.4488C20.0858 16.9506 12.5803 16.9506 12.5803 16.9506C12.5803 16.9506 5.07488 16.9506 3.20396 16.4488C2.17071 16.1723 1.35872 15.3603 1.08213 14.327C0.580322 12.4561 0.580322 8.55027 0.580322 8.55027C0.580322 8.55027 0.580322 4.64445 1.08213 2.77354C1.35872 1.74029 2.17071 0.9283 3.20396 0.651712C5.07488 0.149902 12.5803 0.149902 12.5803 0.149902C12.5803 0.149902 20.0858 0.149902 21.9566 0.651712ZM16.4131 8.55004L10.178 12.1496V4.95042L16.4131 8.55004Z" fill="white"/>
</svg>
