<svg xmlns="http://www.w3.org/2000/svg" width="172.531" height="52.684" viewBox="0 0 172.531 52.684">
  <g id="F1RE-IgniteChange_logo2020" transform="translate(-208.3 -232.7)">
    <g id="Group_266" data-name="Group 266" transform="translate(305.232 278.246)">
      <path id="Path_253" data-name="Path 253" d="M447.3,346.033V345.1h1.379v.933Zm0,4.948V346.52h1.379v4.461Z" transform="translate(-447.3 -345.059)" fill="#f29400"/>
      <path id="Path_254" data-name="Path 254" d="M460.195,346.014a1.432,1.432,0,0,0-1.257.73,1.312,1.312,0,0,1,.487,1.054c0,1.338-1.419,1.5-2.758,1.5a4.864,4.864,0,0,1-1.987-.324c-.2.081-.324.2-.324.284,0,.406.649.568,1.217.568,1.744,0,2.352-.2,3.447-.2.73,0,1.257.324,1.257.973,0,1.42-1.825,1.541-3.447,1.541-2.231,0-3.529-.162-3.529-1.136a.98.98,0,0,1,.487-.771.864.864,0,0,1-.487-.689,1.128,1.128,0,0,1,.852-1.014,1.447,1.447,0,0,1-.243-.771c0-1.379,1.42-1.582,2.758-1.582a5.888,5.888,0,0,1,1.744.2A1.891,1.891,0,0,1,460.195,345Zm-5.962,4.664c0,.527.933.649,2.271.649,1.5,0,2.474-.162,2.474-.608,0-.2-.162-.324-.487-.324-.568,0-1.257.162-2.961.162a4.759,4.759,0,0,1-1.176-.122A.35.35,0,0,0,454.233,350.678Zm2.433-3.65c-.973,0-1.622.162-1.622.73,0,.608.689.73,1.622.73.973,0,1.622-.162,1.622-.73S457.64,347.028,456.666,347.028Z" transform="translate(-450.867 -345)" fill="#f29400"/>
      <path id="Path_255" data-name="Path 255" d="M477,352.942v-2.6c0-.608-.365-1.014-1.257-1.014a3.151,3.151,0,0,0-2.068.568v3.042H472.3v-4.461h1.176l.041.487a4.667,4.667,0,0,1,2.433-.568c1.257,0,2.393.406,2.393,1.947v2.6Z" transform="translate(-462.161 -347.021)" fill="#f29400"/>
      <path id="Path_256" data-name="Path 256" d="M490.4,346.033V345.1h1.379v.933Zm0,4.948V346.52h1.379v4.461Z" transform="translate(-472.92 -345.059)" fill="#f29400"/>
      <path id="Path_257" data-name="Path 257" d="M496.571,351.456v-3.691H495.8v-.811h.771V345.9h1.338v1.055h.771v.811h-.771v3.691Z" transform="translate(-476.13 -345.535)" fill="#f29400"/>
      <path id="Path_258" data-name="Path 258" d="M505.6,350.817c.081.852.689,1.136,1.825,1.136a1.965,1.965,0,0,0,1.7-.608l1.257.324c-.365.771-1.338,1.136-2.92,1.136-2.068,0-3.163-.568-3.163-2.352s1.1-2.352,3.163-2.352c2.474,0,3.123.73,3.123,2.433v.2H505.6Zm3.61-.771c-.122-.649-.649-.973-1.785-.973-1.055,0-1.663.243-1.785.973Z" transform="translate(-481.182 -346.843)" fill="#f29400"/>
      <path id="Path_259" data-name="Path 259" d="M535.105,351.545q-.365,1.46-3.042,1.46c-2.068,0-3.163-.568-3.163-2.352s1.1-2.352,3.163-2.352c1.744,0,2.758.365,3,1.42l-1.176.365c-.2-.608-.771-.811-1.825-.811-1.3,0-1.866.406-1.866,1.379,0,1.014.568,1.379,1.866,1.379,1.055,0,1.7-.243,1.825-.852Z" transform="translate(-495.805 -346.962)" fill="#f29400"/>
      <path id="Path_260" data-name="Path 260" d="M551.4,350.981v-2.515c0-.689-.284-1.1-1.257-1.1a3.151,3.151,0,0,0-2.068.568v3.042H546.7V345.1h1.379v1.785a4.788,4.788,0,0,1,2.312-.487c1.257,0,2.393.406,2.393,1.947v2.6H551.4Z" transform="translate(-506.386 -345.059)" fill="#f29400"/>
      <path id="Path_261" data-name="Path 261" d="M570.773,352.8a1.333,1.333,0,0,1-.69.162c-.568,0-.811-.162-.933-.446a6.154,6.154,0,0,1-2.717.487c-1.582,0-2.433-.527-2.433-1.582,0-1.217,1.46-1.419,2.839-1.419a6.322,6.322,0,0,1,2.068.243c-.081-.568-.243-.973-1.947-.973a3.982,3.982,0,0,0-2.19.487l-.69-.689a4.684,4.684,0,0,1,3-.771c1.582,0,2.312.284,2.636.689a1.825,1.825,0,0,1,.446,1.136c.162,1.541-.041,1.866.365,1.866a.514.514,0,0,0,.243-.041v.852Zm-3.65-2.028c-1.541,0-1.785.162-1.785.608,0,.406.2.689,1.46.689a7.545,7.545,0,0,0,2.19-.284c0-.2-.041-.406-.041-.811A9.123,9.123,0,0,0,567.123,350.774Z" transform="translate(-516.669 -346.962)" fill="#f29400"/>
      <path id="Path_262" data-name="Path 262" d="M587.3,352.942v-2.6c0-.608-.365-1.014-1.257-1.014a3.151,3.151,0,0,0-2.068.568v3.042H582.6v-4.461h1.176l.041.487a4.667,4.667,0,0,1,2.433-.568c1.257,0,2.393.406,2.393,1.947v2.6Z" transform="translate(-527.726 -347.021)" fill="#f29400"/>
      <path id="Path_263" data-name="Path 263" d="M606.795,346.014a1.432,1.432,0,0,0-1.257.73,1.312,1.312,0,0,1,.487,1.054c0,1.338-1.419,1.5-2.758,1.5a4.864,4.864,0,0,1-1.987-.324c-.2.081-.324.2-.324.284,0,.406.649.568,1.217.568,1.744,0,2.352-.2,3.447-.2.73,0,1.257.324,1.257.973,0,1.42-1.825,1.541-3.447,1.541-2.231,0-3.529-.162-3.529-1.136a.98.98,0,0,1,.487-.771.864.864,0,0,1-.487-.689,1.128,1.128,0,0,1,.852-1.014,1.447,1.447,0,0,1-.243-.771c0-1.379,1.419-1.582,2.758-1.582a5.888,5.888,0,0,1,1.744.2A1.891,1.891,0,0,1,606.795,345Zm-6,4.664c0,.527.933.649,2.271.649,1.5,0,2.474-.162,2.474-.608,0-.2-.162-.324-.487-.324-.568,0-1.257.162-2.961.162a4.759,4.759,0,0,1-1.176-.122C600.873,350.516,600.792,350.6,600.792,350.678Zm2.474-3.65c-.973,0-1.622.162-1.622.73,0,.608.69.73,1.622.73.973,0,1.622-.162,1.622-.73S604.24,347.028,603.266,347.028Z" transform="translate(-538.009 -345)" fill="#f29400"/>
      <path id="Path_264" data-name="Path 264" d="M619.5,350.817c.081.852.689,1.136,1.825,1.136a1.965,1.965,0,0,0,1.7-.608l1.257.324c-.365.771-1.338,1.136-2.92,1.136-2.068,0-3.163-.568-3.163-2.352s1.1-2.352,3.163-2.352c2.474,0,3.123.73,3.123,2.433v.2H619.5Zm3.569-.771c-.122-.649-.649-.973-1.785-.973-1.054,0-1.663.243-1.785.973Z" transform="translate(-548.887 -346.843)" fill="#f29400"/>
    </g>
    <path id="Path_265" data-name="Path 265" d="M588.985,256.467c-2.312-5.07-6.611-7.5-9.085-10.22-6.651-7.3-4.542-12.329-3.812-13.546-11.4,8.639-2.555,15.655-3.934,19.833a2.48,2.48,0,0,1-2.8,1.622c-2.6-.527-2.109-3.731-1.338-5.516-3.61,1.5-7.016,7.828-7.016,14.114a12.887,12.887,0,0,0,8.436,12.127c-.2-.324-.365-.689-.527-1.014-1.379-3.082-1.3-6.976.771-9.612,1.257-1.582,3.082-2.636,4.583-3.934,1.541-1.338,2.88-3.2,2.555-5.232a9.234,9.234,0,0,1-.122,7.746,7.639,7.639,0,0,0-1.014,2.717,2.483,2.483,0,0,0,1.785,2.433,2.178,2.178,0,0,0,2.393-.771c.649-.933.284-2.19.2-3.326a6.48,6.48,0,0,1,.649-3.245c-.2,1.947,1.1,3.691,2.068,5.394,1.054,1.866,1.987,4.259,1.5,6.408a7.73,7.73,0,0,1-.73,1.906,1.645,1.645,0,0,1-.2.365C590.2,271.513,592.067,263.28,588.985,256.467Z" transform="translate(-209.654)" fill="#f29400" fill-rule="evenodd"/>
    <rect id="Rectangle_763" data-name="Rectangle 763" width="92.065" height="0.811" transform="translate(208.3 281.45)" fill="#f29400"/>
    <g id="Group_269" data-name="Group 269" transform="translate(208.3 242.474)">
      <g id="Group_267" data-name="Group 267" transform="translate(35.244)">
        <path id="Path_266" data-name="Path 266" d="M301.2,289.205V260.45h-.324l-5.678,2.555v-3.123l6.651-3.082h2.92v32.405Z" transform="translate(-295.2 -256.8)" fill="#3e3d40"/>
        <path id="Path_267" data-name="Path 267" d="M371.418,289.205A34.612,34.612,0,0,1,360.873,277H338.728v12.208H335.2V256.8h27.7c8.274,0,12.248,3.894,12.248,9.855,0,6.53-4.056,9.49-10.585,10.18,2.028,4.015,5.759,8.4,11.234,12.329h-4.38ZM338.728,259.68v14.438h22.915c5.881,0,9.815-2.109,9.815-7.463,0-4.421-2.961-6.976-8.6-6.976Z" transform="translate(-318.977 -256.8)" fill="#3e3d40"/>
        <path id="Path_268" data-name="Path 268" d="M447.3,289.205V256.8h36.907v2.839H450.788v11.478h32.446v2.839H450.788v12.208h34.028v3.082H447.3Z" transform="translate(-385.612 -256.8)" fill="#3e3d40"/>
      </g>
      <g id="Group_268" data-name="Group 268">
        <path id="Path_269" data-name="Path 269" d="M208.3,256.8v32.405h3.528V276.186h30.743v-2.758H211.828V259.6h24.983l6-2.8Z" transform="translate(-208.3 -256.8)" fill="#3e3d40"/>
      </g>
    </g>
  </g>
</svg>
