<svg width="349" height="53" viewBox="0 0 349 53" fill="none" xmlns="http://www.w3.org/2000/svg">
<path fill-rule="evenodd" clip-rule="evenodd" d="M69.7296 8.53433H94.5784C96.9798 8.53433 98.9281 6.62662 98.9281 4.2751V4.25969C98.9281 1.90817 96.9798 0.000457764 94.5784 0.000457764H69.7296C67.3266 0.000457764 65.3799 1.90817 65.3799 4.25969V4.2751C65.3799 6.62662 67.3266 8.53433 69.7296 8.53433ZM47.4282 0C49.9304 0 51.9573 1.98631 51.9573 4.43645V48.5636C51.9573 51.0137 49.9304 53 47.4282 53H47.3149C44.8127 53 42.7842 51.0137 42.7842 48.5636V8.98384H33.1296C31.6818 8.98384 30.5094 10.1319 30.5094 11.5495V48.5636C30.5094 51.0137 28.4809 53 25.9787 53L25.7654 52.9952C23.3623 52.8861 21.4496 50.9437 21.4496 48.5636V11.5495C21.4496 10.1319 20.2756 8.98384 18.8293 8.98384H9.17309V48.5636C9.17309 51.0137 7.14617 53 4.64398 53H4.5307C2.02851 53 0 51.0137 0 48.5636V4.43645C0 1.98631 2.02851 0 4.5307 0H47.4282ZM307.404 0.000762939C309.37 0.000762939 311.137 1.17653 311.859 2.96713L311.872 3.00333C312.285 4.17773 322.609 33.5418 322.781 33.9359C323.303 35.1471 324.501 35.9947 325.926 35.9947C327.352 35.9947 328.123 35.1456 328.646 33.9359C328.648 33.9319 328.65 33.9249 328.654 33.9149L328.69 33.8199C329.023 32.9138 331.118 27.0081 333.387 20.6022L333.712 19.6842L334.039 18.7622C334.093 18.6084 334.148 18.4545 334.202 18.3007L334.529 17.3784C337.137 10.0097 339.627 2.96713 339.627 2.96713C340.299 0.772797 341.988 0.000762939 344.205 0.000762939C347.648 0.000762939 349.966 3.451 348.604 6.5468L330.989 50.1654C330.232 51.8851 328.503 52.9992 326.589 52.9992H324.548C322.642 52.9992 320.917 51.8928 320.156 50.1793L302.798 6.56221C301.421 3.46487 303.74 0.000762939 307.19 0.000762939H307.404ZM223.092 0.000930786C226.659 0.000930786 230.099 0.537182 233.412 1.6097C236.725 2.68375 239.655 4.31717 242.204 6.51305C244.752 8.70892 246.79 11.4657 248.32 14.785C249.849 18.1042 250.612 22.009 250.612 26.4994C250.612 31.0422 249.734 34.9716 247.976 38.2893C246.217 41.6086 243.949 44.353 241.172 46.5242C238.393 48.6955 235.31 50.3181 231.922 51.3906C228.532 52.4631 225.207 52.9994 221.944 52.9994H215.733C213.24 52.9994 211.127 51.4939 210.883 50.8651L202.412 32.6633C201.99 32.07 201.763 29.8233 201.763 29.099V3.53899C201.763 1.58504 203.381 0.000930786 205.378 0.000930786H223.092ZM171.445 0.000610352C173.352 0.000610352 175.077 1.10703 175.837 2.82059L195.216 46.4376C196.593 49.535 194.273 52.9991 190.823 52.9991H190.609C188.644 52.9991 186.877 51.8233 186.154 50.0327C186.154 50.0327 173.865 19.4661 173.691 19.0639C173.168 17.8527 171.945 17.0052 170.52 17.0052C169.094 17.0052 167.869 17.8543 167.347 19.0639C167.265 19.253 164.487 26.1053 161.565 33.3157L161.191 34.2376C158.012 42.0823 154.792 50.0327 154.792 50.0327C154.12 52.2271 152.431 52.9991 150.216 52.9991C146.772 52.9991 144.454 49.5489 145.816 46.453L165.005 2.83446C165.762 1.11474 167.492 0.000610352 169.405 0.000610352H171.445ZM94.4981 19.3904C96.9074 19.3827 98.8635 21.292 98.8635 23.6497L98.8585 23.8561C98.7487 26.1132 96.8462 27.9089 94.5138 27.9089H77.5131C76.1314 27.9089 75.0125 29.0061 75.0125 30.359V42.0164C75.0125 43.3679 76.1314 44.465 77.5131 44.465H94.5138C96.9169 44.465 98.8635 46.3728 98.8635 48.7243V48.7397C98.8635 51.0927 96.9169 52.9989 94.5138 52.9989H69.7296C67.3266 52.9989 65.3799 51.0927 65.3799 48.7397V23.7375C65.3799 21.3906 67.3171 19.486 69.7139 19.4783L94.4981 19.3904ZM288.318 19.3904C290.728 19.3827 292.684 21.292 292.684 23.6497L292.679 23.8561C292.569 26.1132 290.666 27.9089 288.334 27.9089H271.333C269.952 27.9089 268.833 29.0061 268.833 30.359V42.0164C268.833 43.3679 269.952 44.465 271.333 44.465H288.334C290.737 44.465 292.684 46.3728 292.684 48.7243V48.7397C292.684 51.0927 290.737 52.9989 288.334 52.9989H263.55C261.147 52.9989 259.2 51.0927 259.2 48.7397V23.7375C259.2 21.3906 261.137 19.486 263.534 19.4783L288.318 19.3904ZM144.471 0.000457764C146.806 0.000457764 148.713 1.80052 148.823 4.0607L148.828 4.2674C148.828 6.62353 146.877 8.53433 144.471 8.53433H134.566C133.28 8.53433 132.24 9.55446 132.24 10.8119V48.732C132.24 51.0897 130.289 52.9989 127.882 52.9989H126.965C124.559 52.9989 122.607 51.0897 122.607 48.732V10.8119C122.607 9.55446 121.566 8.53433 120.281 8.53433H110.375C108.04 8.53433 106.133 6.73429 106.022 4.47411L106.017 4.2674C106.017 1.91126 107.969 0.000457764 110.375 0.000457764H144.471ZM220.187 8.53479H215.011C213.014 8.53479 211.396 10.1189 211.396 12.0729V32.6355C211.396 34.6141 215.321 41.8567 216.013 42.8983C216.705 43.9416 217.047 44.4655 219.014 44.4655C220.981 44.4655 224.429 44.128 227.106 43.4546C229.781 42.7812 232.112 41.7334 234.101 40.3111C236.087 38.8888 237.655 37.0427 238.802 34.7713C239.949 32.5014 240.522 29.7447 240.522 26.4994C240.522 23.3065 240.012 20.562 238.992 18.266C237.972 15.97 236.558 14.1116 234.75 12.6892C232.94 11.2669 230.8 10.2191 228.329 9.54413C225.857 8.87073 223.142 8.53479 220.187 8.53479ZM288.398 0.000457764C290.8 0.000457764 292.748 1.90817 292.748 4.25969V4.2751C292.748 6.62662 290.8 8.53433 288.398 8.53433H263.55C261.147 8.53433 259.2 6.62662 259.2 4.2751V4.25969C259.2 1.90817 261.147 0.000457764 263.55 0.000457764H288.398Z" fill="url(#paint0_radial_121_849)"/>
<defs>
<radialGradient id="paint0_radial_121_849" cx="0" cy="0" r="1" gradientUnits="userSpaceOnUse" gradientTransform="translate(175 -5.99998) rotate(90) scale(59 150.702)">
<stop stop-color="white"/>
<stop offset="1" stop-color="#8298DE"/>
</radialGradient>
</defs>
</svg>
